<?xml version="1.0" encoding="UTF-8" standalone="no"?>
<!-- Created with Inkscape (http://www.inkscape.org/) -->

<svg
   width="512"
   height="512"
   viewBox="0 0 135.46666 135.46667"
   version="1.1"
   id="svg1"
   xml:space="preserve"
   inkscape:version="1.3 (0e150ed6c4, 2023-07-21)"
   sodipodi:docname="logo-alt.svg"
   inkscape:export-filename="logo-alt.png"
   inkscape:export-xdpi="96"
   inkscape:export-ydpi="96"
   xmlns:inkscape="http://www.inkscape.org/namespaces/inkscape"
   xmlns:sodipodi="http://sodipodi.sourceforge.net/DTD/sodipodi-0.dtd"
   xmlns="http://www.w3.org/2000/svg"
   xmlns:svg="http://www.w3.org/2000/svg"><sodipodi:namedview
     id="namedview1"
     pagecolor="#ffffff"
     bordercolor="#666666"
     borderopacity="1.0"
     inkscape:showpageshadow="2"
     inkscape:pageopacity="0.0"
     inkscape:pagecheckerboard="true"
     inkscape:deskcolor="#d1d1d1"
     inkscape:document-units="mm"
     inkscape:zoom="1.0670983"
     inkscape:cx="259.11389"
     inkscape:cy="301.28432"
     inkscape:window-width="1920"
     inkscape:window-height="1048"
     inkscape:window-x="0"
     inkscape:window-y="0"
     inkscape:window-maximized="1"
     inkscape:current-layer="g1" /><defs
     id="defs1" /><g
     inkscape:label="Layer 1"
     inkscape:groupmode="layer"
     id="layer1"><g
       id="g1"
       transform="matrix(1.1142854,0,0,1.1142854,-2.515817,-5.4911081)"><g
         id="g2"
         transform="translate(-0.95587294,0.69863585)"><path
           d="M 21.976562,12 C 16.449219,12 12,16.460938 12,22 v 86.03125 c 0,5.54297 4.449219,10 9.976562,10 h 84.042968 c 5.53125,0 9.98047,-4.45703 9.98047,-10 V 35.945312 c 0,-6.628906 -5.35937,-12 -11.97266,-12 H 58 c -2.453125,0 -4.695312,-1.386718 -5.796875,-3.582031 L 50.699219,17.371094 C 49.042969,14.078125 45.679688,12 42,12 Z m 0,0"
           fill="#438de6"
           id="path6"
           style="fill:#ffffff;stroke:none;stroke-width:0.281795;stroke-dasharray:none;stroke-opacity:1" /><path
           d="M 65.976562,36 C 63.230469,36 60.75,37.101562 58.949219,38.890625 56.675781,41.144531 53.566406,44 50.316406,44 H 21.976562 C 16.449219,44 12,48.460938 12,54 v 54.03125 c 0,5.54297 4.449219,10 9.976562,10 h 84.042968 c 5.53125,0 9.98047,-4.45703 9.98047,-10 V 46 c 0,-5.539062 -4.44922,-10 -9.98047,-10 z m 0,0"
           fill="url(#a)"
           id="path7" /><path
           id="path8"
           style="fill:#e6e6e6;stroke-width:0.996469"
           d="m 65.9765,32.000083 c -2.74609,0 -5.226621,1.093778 -7.0274,2.870229 -2.273436,2.238017 -5.382488,5.073104 -8.632484,5.073104 H 21.976523 c -5.527337,0 -9.976469,4.429615 -9.976469,9.929629 v 55.581995 c 0,5.50002 4.449132,9.92963 9.976469,9.92963 h 84.043127 c 5.53125,0 9.98018,-4.42961 9.98018,-9.92963 V 41.929712 c 0,-5.500013 -4.44893,-9.929629 -9.98018,-9.929629 z m 8.023564,27.99969 c 3.312496,0 6.000165,2.679857 6.000165,6.000166 0,3.312497 -2.687669,6.000165 -6.000165,6.000165 -1.546874,-0.0078 -3.039057,-0.617322 -4.156244,-1.687633 l -9.890673,4.945568 c 0.03124,0.242188 0.04684,0.492021 0.04684,0.742021 0,0.242188 -0.02347,0.49195 -0.05472,0.734137 l 9.906441,4.953452 c 1.109375,-1.078124 2.601486,-1.687633 4.14836,-1.687633 3.312496,0 6.000165,2.679857 6.000165,6.000165 0,3.312497 -2.687669,5.999702 -6.000165,5.999702 -3.312497,0 -6.000166,-2.687205 -6.000166,-5.999702 0,-0.249999 0.02347,-0.500296 0.05472,-0.742484 l -9.905977,-4.945105 c -1.109375,1.070311 -2.60195,1.679834 -4.148824,1.687634 -3.312496,0 -5.999701,-2.687669 -5.999701,-6.000166 0,-3.320309 2.687205,-6.000165 5.999701,-6.000165 1.554687,0 3.04694,0.601624 4.164128,1.679749 l 9.890673,-4.945105 c -0.03125,-0.242186 -0.05472,-0.492412 -0.05472,-0.7346 0,-3.320309 2.687669,-6.000166 6.000166,-6.000166 z" /></g></g></g></svg>
